<?xml version="1.0" encoding="UTF-8"?>
<svg xmlns="http://www.w3.org/2000/svg" xmlns:xlink="http://www.w3.org/1999/xlink" width="122px" height="168px" viewBox="0 0 122 168" version="1.1">
<g id="surface1">
<path style=" stroke:none;fill-rule:nonzero;fill:rgb(10.196079%,33.333334%,36.862746%);fill-opacity:1;" d="M 50.382812 11.488281 C 43.742188 12.769531 42.296875 19.523438 40.296875 24.769531 C 39.714844 26.292969 38.367188 27.324219 37.558594 28.71875 C 35.792969 31.753906 35.65625 35.433594 36.535156 38.769531 C 37.121094 41.003906 38.902344 42.21875 39.953125 44.152344 C 40.796875 45.71875 40.816406 47.597656 41.710938 49.175781 C 42.464844 50.5 43.78125 51.234375 44.59375 52.476562 C 45.421875 53.734375 45.699219 55.359375 46.347656 56.71875 C 47.15625 58.40625 48.601562 59.949219 49.121094 61.742188 C 50.335938 65.949219 47.933594 69.964844 45.703125 73.230469 C 46.648438 73.472656 47.90625 73.96875 48.878906 73.671875 C 51.710938 72.800781 52.082031 66.992188 52.183594 64.617188 C 56.449219 67.765625 60.542969 70.242188 65.859375 67.726562 C 67.5625 66.921875 68.945312 65.605469 70.535156 64.617188 C 70.542969 70.921875 73.375 75.992188 79.894531 77.539062 C 77.050781 82.441406 71.707031 86.460938 66.9375 89.382812 C 68.566406 89.960938 70.636719 88.976562 72.335938 88.769531 C 74.648438 88.484375 76.910156 88.960938 79.175781 89.382812 C 80.621094 87.027344 82.347656 84.503906 83.132812 81.847656 C 83.316406 84.671875 81.378906 87.429688 80.613281 90.101562 C 82.351562 90.824219 83.988281 91.742188 85.652344 92.617188 C 86.453125 90.09375 86.976562 87.363281 87.089844 84.71875 C 87.953125 87.628906 86.835938 90.789062 87.566406 93.691406 C 88.046875 95.601562 90.066406 97.023438 91.050781 98.71875 C 92.011719 97.378906 93.269531 94.976562 93.472656 93.332031 C 93.941406 89.601562 92.140625 85.613281 92.128906 81.847656 C 95.148438 83.179688 97.9375 84.097656 100.300781 86.574219 C 104.96875 91.472656 106.347656 99.171875 107.757812 105.539062 C 109.609375 113.898438 111.871094 122.257812 114.820312 130.308594 C 116.828125 135.785156 119.328125 141.652344 117.769531 147.539062 C 117.367188 149.058594 116.847656 150.957031 115.691406 152.089844 C 113.582031 154.15625 109.496094 151.410156 107.605469 150.140625 C 102.699219 146.851562 99.921875 141.882812 96.683594 137.128906 C 95.242188 135.007812 93.289062 132.691406 93.644531 129.949219 C 94.132812 126.230469 97.589844 123.632812 97.851562 119.898438 C 98.128906 115.964844 95.097656 112.953125 95.007812 109.128906 C 97.792969 112.339844 100.1875 115.972656 100.765625 120.257812 C 102.824219 118.851562 101.976562 116.464844 101.242188 114.511719 C 99.601562 110.15625 95.253906 106.316406 95.007812 101.589844 C 98.445312 105.046875 101.300781 108.921875 103.144531 113.4375 C 103.691406 114.78125 104.605469 116.246094 104.542969 117.742188 C 104.480469 119.21875 103.664062 120.683594 103.175781 122.050781 C 101.898438 125.628906 100.078125 129.332031 100.046875 133.179688 C 101.054688 132.628906 101.425781 132.089844 101.847656 131.027344 C 106.472656 133.320312 110.898438 136.019531 115.164062 138.921875 C 114.671875 135.664062 112.617188 133.667969 109.765625 132.195312 C 108.011719 131.289062 105.265625 130.390625 104.339844 128.5 C 103.785156 127.363281 104.484375 126.003906 104.875 124.921875 C 105.707031 122.625 106.734375 120.160156 107.128906 117.742188 C 107.402344 116.039062 106.882812 114.390625 106.625 112.71875 C 105.917969 108.164062 105.167969 104.765625 102.566406 100.871094 C 101.476562 99.238281 99.308594 94.292969 96.808594 95.007812 C 94.859375 95.566406 94.664062 97.539062 93.941406 99.078125 C 93.484375 100.050781 92.726562 100.835938 92.605469 101.949219 C 92.421875 103.601562 93.535156 105.03125 93.519531 106.617188 C 93.5 108.34375 92.410156 109.410156 92.78125 111.28125 C 93.152344 113.160156 94.464844 114.757812 94.605469 116.667969 C 94.996094 121.847656 90.613281 125.996094 90.738281 131.027344 C 90.828125 134.765625 93.136719 137.414062 95.128906 140.359375 C 98.648438 145.566406 101.632812 150.40625 107.246094 153.636719 C 109.613281 154.996094 112.375 156.15625 115.164062 155.71875 C 117.601562 155.335938 119.023438 153.300781 119.808594 151.128906 C 121.265625 147.105469 121.640625 142.722656 120.6875 138.5625 C 119.28125 132.445312 116.839844 126.59375 114.925781 120.617188 C 113 114.597656 111.542969 108.445312 110.082031 102.308594 C 108.378906 95.144531 106.820312 86.972656 100.402344 82.363281 C 98.039062 80.667969 95.324219 80.234375 92.863281 78.875 C 91.871094 78.324219 91.226562 77.386719 90.296875 76.753906 C 89.074219 75.921875 87.417969 75.492188 86.011719 75.058594 C 84.28125 74.523438 82.695312 75.019531 80.972656 74.773438 C 77.480469 74.277344 74.5625 71.085938 73.6875 67.847656 C 73.109375 65.707031 72.914062 63.140625 73.71875 61.027344 C 74.300781 59.5 75.421875 58.195312 76.117188 56.71875 C 76.757812 55.363281 77.046875 53.753906 77.835938 52.484375 C 78.542969 51.347656 79.78125 50.707031 80.484375 49.53125 C 81.492188 47.851562 81.492188 45.828125 82.445312 44.152344 C 83.191406 42.84375 84.414062 41.890625 85.140625 40.5625 C 86.847656 37.464844 86.878906 33.007812 85.484375 29.792969 C 84.703125 27.996094 83.027344 26.871094 82.207031 25.128906 C 80.722656 21.964844 80.699219 18.640625 78.335938 15.796875 C 76.707031 13.835938 74.085938 12.898438 72.550781 10.992188 C 71.792969 10.046875 71.816406 8.648438 71.417969 7.539062 C 70.726562 5.609375 69.386719 4.015625 67.65625 2.917969 C 60.449219 -1.652344 50.40625 2.753906 50.382812 11.488281 M 78.09375 24.410156 C 75.699219 22.9375 73.503906 21.171875 70.898438 20.058594 C 65.082031 17.566406 57.6875 17.542969 51.824219 19.90625 C 49.066406 21.019531 46.773438 22.867188 44.265625 24.410156 C 50.292969 12.339844 72.066406 12.339844 78.09375 24.410156 M 61.179688 24.410156 C 62.753906 26.519531 63.890625 28.546875 66.21875 29.984375 C 69.734375 32.164062 74.609375 33.042969 76.15625 37.332031 C 78.878906 44.894531 75.160156 55.164062 70.316406 61.023438 C 68.125 63.675781 64.816406 66.382812 61.179688 66.382812 C 57.820312 66.378906 54.503906 63.757812 52.394531 61.371094 C 48.832031 57.335938 47.351562 52.871094 46.191406 47.742188 C 45.46875 44.558594 44.824219 41.246094 45.894531 38.050781 C 47.507812 33.222656 52.234375 32.40625 56.140625 29.984375 C 58.453125 28.554688 59.679688 26.566406 61.179688 24.410156 M 47.144531 39.488281 C 49.070312 39.089844 50.925781 38.535156 52.902344 38.957031 C 54.78125 39.355469 56.359375 40.578125 58.300781 40.207031 C 56.910156 36.488281 49.082031 36.09375 47.144531 39.488281 M 62.621094 49.179688 L 63.339844 49.179688 C 63.34375 46.960938 63.230469 43.609375 64.453125 41.679688 C 66.691406 38.140625 71.824219 38.832031 75.214844 39.488281 C 74.722656 38.078125 73.402344 37.6875 71.976562 37.449219 C 69.296875 37.003906 65.71875 37.351562 63.839844 39.527344 C 61.535156 42.191406 62.617188 46.011719 62.621094 49.179688 M 48.222656 42 C 49.125 43.839844 51.082031 45.414062 53.261719 45.148438 C 54.65625 44.976562 55.792969 44.214844 57.222656 44.152344 C 56.152344 42.222656 54.109375 42.828125 52.183594 42.6875 C 50.84375 42.585938 49.550781 42.179688 48.222656 42 M 65.136719 43.792969 C 69.007812 45.320312 71.820312 45.753906 74.496094 42 C 72.9375 42.199219 71.386719 42.578125 69.816406 42.6875 C 68.03125 42.808594 66.476562 42.433594 65.136719 43.792969 M 58.300781 52.050781 C 59.664062 54.4375 62.996094 54.292969 64.417969 52.050781 C 62.464844 51.804688 60.351562 52.210938 58.300781 52.050781 M 56.140625 57.078125 C 56.921875 58.277344 58.019531 58.152344 59.378906 58.152344 C 61.664062 58.160156 64.558594 58.640625 66.578125 57.4375 C 63.039062 55.875 59.792969 56.460938 56.140625 57.078125 M 58.300781 59.949219 C 59.535156 61.898438 62.878906 61.964844 64.058594 59.949219 L 58.300781 59.949219 M 7.199219 138.5625 C 8.886719 137.816406 10.265625 136.554688 11.875 135.648438 C 14.714844 134.050781 17.660156 132.609375 20.511719 131.027344 C 20.9375 132.089844 21.304688 132.628906 22.3125 133.179688 C 22.265625 127.621094 18.355469 123.121094 17.886719 117.742188 C 17.746094 116.109375 18.8125 114.523438 19.433594 113.078125 C 21.289062 108.761719 24.101562 104.980469 27.351562 101.589844 C 27.027344 107.820312 17.597656 113.777344 21.234375 120.257812 C 22.316406 118.703125 22.460938 116.589844 23.324219 114.871094 C 24.351562 112.828125 25.972656 111.171875 26.992188 109.128906 C 27.921875 112.542969 24.484375 115.9375 24.5 119.539062 C 24.519531 123.335938 28.074219 125.894531 28.671875 129.589844 C 29.167969 132.628906 27.273438 134.78125 25.675781 137.128906 C 24.058594 139.503906 22.65625 142.019531 20.910156 144.308594 C 18.476562 147.5 15.464844 149.972656 11.875 151.757812 C 10.28125 152.550781 8.476562 153.46875 6.914062 152.089844 C 5.222656 150.601562 4.6875 147.867188 4.367188 145.742188 C 3.394531 139.304688 6.800781 132.730469 8.8125 126.71875 C 11.253906 119.40625 13.289062 111.984375 14.960938 104.460938 C 16.386719 98.066406 17.753906 90.609375 22.734375 85.902344 C 26.757812 82.101562 33.949219 80.550781 39.226562 79.332031 L 39.226562 76.101562 C 36.777344 76.667969 34.4375 77.632812 32.03125 78.355469 C 28.230469 79.496094 24.304688 80.300781 21.234375 82.988281 C 15.390625 88.097656 13.980469 95.5 12.277344 102.667969 C 10.285156 111.046875 8.011719 119.261719 5.277344 127.4375 C 2.921875 134.492188 0.269531 140.734375 1.875 148.257812 C 2.460938 151.003906 3.324219 154.183594 6.121094 155.445312 C 8.460938 156.507812 10.722656 155.71875 12.957031 154.761719 C 17.894531 152.652344 21.53125 149.066406 24.472656 144.667969 C 27.226562 140.542969 31.960938 135.578125 31.636719 130.308594 C 31.34375 125.542969 27.53125 121.605469 27.808594 116.667969 C 27.925781 114.605469 29.425781 112.9375 29.75 110.921875 C 30.019531 109.269531 28.960938 108.160156 28.914062 106.617188 C 28.871094 105.265625 29.792969 104.039062 29.820312 102.667969 C 29.855469 100.988281 28.367188 97.980469 27.445312 96.570312 C 26.667969 95.386719 25.203125 94.367188 23.871094 95.347656 C 21.640625 96.980469 19.972656 100.726562 18.476562 103.027344 C 16.585938 105.9375 16.257812 109.351562 15.734375 112.71875 C 15.511719 114.152344 15.070312 115.5625 15.222656 117.027344 C 15.507812 119.710938 16.621094 122.394531 17.523438 124.921875 C 17.832031 125.792969 18.445312 126.839844 18.304688 127.792969 C 17.890625 130.671875 13.191406 131.652344 11.15625 133.035156 C 9.144531 134.402344 7.867188 136.246094 7.199219 138.5625 M 97.527344 97.28125 C 99.648438 101.082031 103.410156 104.585938 103.644531 109.128906 C 101.578125 106.761719 99.597656 103.894531 97.921875 101.230469 C 97.082031 99.894531 96.53125 98.617188 97.527344 97.28125 M 25.191406 97.640625 C 25.148438 102.328125 20.976562 105.132812 19.074219 109.128906 C 18.671875 107.808594 19.222656 106.378906 19.859375 105.179688 C 21.242188 102.582031 23.011719 99.628906 25.191406 97.640625 M 33.828125 134.257812 C 33.339844 135.261719 32.644531 136.355469 32.523438 137.488281 C 32.355469 139 33.171875 140.695312 33.507812 142.152344 C 34.117188 144.792969 34.492188 147.707031 34.113281 150.410156 C 33.261719 156.503906 28.976562 161.605469 28.070312 167.640625 C 31.453125 167.640625 35.164062 168.070312 38.507812 167.523438 C 45.671875 166.355469 52.707031 161.628906 58.300781 157.273438 C 61.484375 154.792969 65.808594 151.375 67.296875 147.539062 C 65.128906 147.21875 63.042969 146.070312 60.820312 146.148438 C 58.472656 146.234375 56.324219 147.585938 53.980469 147.835938 C 52.242188 148.023438 50.257812 147.394531 48.585938 147.820312 C 45.246094 148.675781 42.316406 151.03125 38.867188 151.847656 C 41.242188 150.125 43.824219 148.726562 46.066406 146.820312 C 44.28125 144.722656 41.640625 143.371094 39.691406 141.375 C 37.5625 139.195312 36.117188 136.199219 33.828125 134.257812 M 88.171875 134.257812 C 85.484375 138.617188 82.164062 142.855469 77.734375 145.574219 C 75.488281 146.957031 72.175781 147.082031 70.238281 148.726562 C 67.179688 151.328125 64.816406 155.105469 61.898438 157.941406 C 58.066406 161.675781 53.535156 164.582031 48.945312 167.28125 C 50.644531 167.992188 52.875 167.640625 54.703125 167.640625 L 65.859375 167.640625 C 67.570312 167.640625 70.078125 168.097656 71.554688 167.066406 C 73.046875 166.019531 74.101562 164.101562 75.09375 162.617188 C 77.71875 158.691406 80.386719 154.257812 81.691406 149.691406 C 82.105469 151.609375 81.332031 153.601562 80.730469 155.4375 C 79.316406 159.769531 77.136719 163.539062 75.214844 167.640625 L 94.648438 167.640625 C 92.488281 161.273438 88.515625 155.125 88.207031 148.257812 C 88 143.585938 91.929688 138.074219 88.171875 134.257812 "/>
<path style=" stroke:none;fill-rule:nonzero;fill:rgb(90.588236%,69.803923%,23.137255%);fill-opacity:1;" d="M 41.746094 75.941406 C 41.882812 82.414062 45.875 88.269531 52.183594 90.144531 C 54.632812 90.871094 57.214844 90.660156 59.742188 90.660156 L 59.742188 94.25 C 56.722656 94.113281 54.03125 92.597656 51.101562 91.976562 C 47.78125 91.273438 44.015625 91.921875 41.027344 93.492188 C 25.4375 101.679688 29.789062 123.253906 37.910156 135.171875 C 39.839844 138 42.167969 140.65625 44.984375 142.636719 C 47.851562 144.652344 51.179688 145.78125 54.703125 145.039062 C 56.75 144.605469 58.6875 143.421875 60.820312 143.476562 C 64.171875 143.558594 67.125 145.363281 70.535156 145.210938 C 76.390625 144.945312 80.753906 140.300781 83.980469 135.890625 C 91.484375 125.640625 96.074219 108.03125 86.664062 97.480469 C 83.050781 93.425781 76.664062 91.050781 71.257812 91.894531 C 68.273438 92.359375 65.605469 93.988281 62.621094 94.25 C 62.632812 89.144531 64.933594 84.652344 69.457031 82.042969 C 69.210938 81.507812 69.03125 81.066406 68.65625 80.601562 C 66.949219 78.484375 65.503906 78.957031 63.886719 80.96875 C 61.914062 83.421875 60.886719 86.226562 60.101562 89.222656 C 59.21875 87.175781 58.917969 85.03125 57.6875 83.121094 C 54.125 77.59375 47.917969 76.207031 41.746094 75.941406 Z M 38.148438 76.300781 L 38.507812 76.660156 Z M 44.972656 95.765625 C 45.949219 95.714844 46.777344 96.066406 47.140625 97.160156 C 43.441406 98.695312 40.332031 101.042969 38.5 104.695312 C 37.703125 106.289062 37.339844 108.066406 36.703125 109.722656 L 35.984375 109.722656 C 34.691406 105.363281 36.839844 100.582031 40.316406 97.839844 C 41.304688 97.058594 43.34375 95.851562 44.972656 95.765625 Z M 44.972656 95.765625 "/>
<path style=" stroke:none;fill-rule:nonzero;fill:rgb(100%,100%,100%);fill-opacity:1;" d="M 61.257812 123.898438 C 60.269531 123.898438 59.464844 124.699219 59.464844 125.6875 L 59.464844 134.632812 C 59.464844 135.621094 60.269531 136.421875 61.257812 136.421875 C 62.25 136.421875 63.054688 135.621094 63.054688 134.632812 L 63.054688 125.6875 C 63.054688 124.699219 62.25 123.898438 61.257812 123.898438 Z M 61.257812 123.898438 "/>
<path style=" stroke:none;fill-rule:nonzero;fill:rgb(100%,100%,100%);fill-opacity:1;" d="M 68.433594 120.320312 C 67.441406 120.320312 66.640625 121.121094 66.640625 122.109375 L 66.640625 134.632812 C 66.640625 135.621094 67.441406 136.421875 68.433594 136.421875 C 69.425781 136.421875 70.226562 135.621094 70.226562 134.632812 L 70.226562 122.109375 C 70.226562 121.121094 69.425781 120.320312 68.433594 120.320312 Z M 68.433594 120.320312 "/>
<path style=" stroke:none;fill-rule:nonzero;fill:rgb(100%,100%,100%);fill-opacity:1;" d="M 75.609375 113.164062 C 74.617188 113.164062 73.816406 113.964844 73.816406 114.953125 L 73.816406 134.632812 C 73.816406 135.621094 74.617188 136.421875 75.609375 136.421875 C 76.597656 136.421875 77.402344 135.621094 77.402344 134.632812 L 77.402344 114.953125 C 77.402344 113.964844 76.597656 113.164062 75.609375 113.164062 Z M 75.609375 113.164062 "/>
<path style=" stroke:none;fill-rule:nonzero;fill:rgb(100%,100%,100%);fill-opacity:1;" d="M 77.925781 101.164062 L 63.054688 116.003906 L 57.78125 110.742188 C 56.746094 109.710938 55.011719 109.710938 53.976562 110.742188 L 42.054688 122.636719 C 41.355469 123.332031 41.355469 124.464844 42.054688 125.164062 C 42.753906 125.863281 43.890625 125.863281 44.589844 125.164062 L 55.878906 113.90625 L 61.152344 119.164062 C 62.1875 120.199219 63.921875 120.195312 64.957031 119.160156 L 80.464844 103.695312 C 81.164062 102.996094 81.164062 101.863281 80.464844 101.164062 C 79.761719 100.46875 78.628906 100.46875 77.925781 101.164062 Z M 77.925781 101.164062 "/>
<path style=" stroke:none;fill-rule:nonzero;fill:rgb(100%,100%,100%);fill-opacity:1;" d="M 46.910156 127.476562 C 45.917969 127.476562 45.117188 128.28125 45.117188 129.265625 L 45.117188 134.632812 C 45.117188 135.621094 45.917969 136.421875 46.910156 136.421875 C 47.902344 136.421875 48.703125 135.621094 48.703125 134.632812 L 48.703125 129.265625 C 48.703125 128.28125 47.902344 127.476562 46.910156 127.476562 Z M 46.910156 127.476562 "/>
<path style=" stroke:none;fill-rule:nonzero;fill:rgb(100%,100%,100%);fill-opacity:1;" d="M 54.085938 120.320312 C 53.09375 120.320312 52.292969 121.121094 52.292969 122.109375 L 52.292969 134.632812 C 52.292969 135.621094 53.09375 136.421875 54.085938 136.421875 C 55.074219 136.421875 55.878906 135.621094 55.878906 134.632812 L 55.878906 122.109375 C 55.878906 121.121094 55.074219 120.320312 54.085938 120.320312 Z M 54.085938 120.320312 "/>
</g>
</svg>
