<?xml version="1.0" encoding="UTF-8" standalone="no"?>
<svg
   width="173.53702"
   height="196.87007"
   version="1.1"
   id="svg1"
   sodipodi:docname="hesperida-icon.svg"
   xml:space="preserve"
   inkscape:version="1.4.3 (0d15f75042, 2025-12-25)"
   xmlns:inkscape="http://www.inkscape.org/namespaces/inkscape"
   xmlns:sodipodi="http://sodipodi.sourceforge.net/DTD/sodipodi-0.dtd"
   xmlns="http://www.w3.org/2000/svg"
   xmlns:svg="http://www.w3.org/2000/svg"><defs
     id="defs1" /><sodipodi:namedview
     id="namedview1"
     pagecolor="#ffffff"
     bordercolor="#000000"
     borderopacity="0.25"
     inkscape:showpageshadow="2"
     inkscape:pageopacity="0.0"
     inkscape:pagecheckerboard="0"
     inkscape:deskcolor="#d1d1d1"
     inkscape:zoom="2.4416337"
     inkscape:cx="132.69804"
     inkscape:cy="57.748221"
     inkscape:window-width="1920"
     inkscape:window-height="1011"
     inkscape:window-x="0"
     inkscape:window-y="0"
     inkscape:window-maximized="1"
     inkscape:current-layer="svg1" /><path
     id="path17"
     style="fill:#e7b23b;stroke:none"
     d="m 32.859315,1.8554635 c 0.374,18.0300005 11.47,34.3375505 29,39.5605505 6.80301,2.027 13.984,1.43945 21,1.43945 v 10 c -8.389,-0.383 -15.86499,-4.60508 -24,-6.33008 -9.227,-1.957 -19.695,-0.15329 -28,4.22071 -43.312103,22.812 -31.22075227,82.909366 -8.65625,116.109366 5.355,7.879 11.82725,15.27502 19.65625,20.79102 7.969,5.614 17.211,8.7674 27,6.6914 5.685,-1.205 11.069,-4.49756 17,-4.35156 9.308,0.23 17.519995,5.25608 26.999995,4.83008 16.269,-0.733 28.38638,-13.67394 37.35938,-25.96094 20.851,-28.553 33.59803,-77.611086 7.45703,-106.996086 -10.048,-11.294 -27.78741,-17.91145 -42.81641,-15.56445 -8.287,1.294 -15.707995,5.83154 -23.999995,6.56054 0.039,-14.221 6.427,-26.732 18.999995,-34 -0.684,-1.493 -1.18256,-2.72644 -2.22656,-4.02343 -4.747,-5.8980005 -8.762855,-4.575711 -13.255855,1.02929 -5.478,6.832 -8.33458,14.64714 -10.51758,22.99414 -2.455,-5.706 -3.28117,-11.68 -6.70117,-17 C 67.259145,6.4574635 50.011315,2.5924635 32.859315,1.8554635 Z m -10,1 1,1 z m 18.96485,54.2265705 c 2.71274,-0.14364 5.01235,0.83915 6.02148,3.8789 -10.277,4.279 -18.91281,10.818 -24.00781,21 -2.218,4.434 -3.22719,9.39 -4.99219,14 h -2.000004 c -3.5914,-12.15 2.379064,-25.46656 12.039064,-33.10156 2.75,-2.17313 8.41821,-5.53796 12.93946,-5.77734 z" /><g
     style="fill:none;stroke:#ffffff;stroke-width:2;stroke-linecap:round;stroke-linejoin:round"
     id="g1"
     transform="matrix(4.9839198,0,0,4.9839198,27.272795,60.695874)"><path
       style="baseline-shift:baseline;display:inline;overflow:visible;opacity:1;vector-effect:none;fill:#ffffff;stroke:none;stroke-linecap:butt;stroke-linejoin:miter;enable-background:accumulate;stop-color:#000000;stop-opacity:1"
       d="m 12,15 a 1,1 0 0 0 -1,1 v 5 a 1,1 0 0 0 1,1 1,1 0 0 0 1,-1 v -5 a 1,1 0 0 0 -1,-1 z"
       id="path1-5" /><path
       style="baseline-shift:baseline;display:inline;overflow:visible;opacity:1;vector-effect:none;fill:#ffffff;stroke:none;stroke-linecap:butt;stroke-linejoin:miter;enable-background:accumulate;stop-color:#000000;stop-opacity:1"
       d="m 16,13 a 1,1 0 0 0 -1,1 v 7 a 1,1 0 0 0 1,1 1,1 0 0 0 1,-1 v -7 a 1,1 0 0 0 -1,-1 z"
       id="path2" /><path
       style="baseline-shift:baseline;display:inline;overflow:visible;opacity:1;vector-effect:none;fill:#ffffff;stroke:none;stroke-linecap:butt;stroke-linejoin:miter;enable-background:accumulate;stop-color:#000000;stop-opacity:1"
       d="m 20,9 a 1,1 0 0 0 -1,1 v 11 a 1,1 0 0 0 1,1 1,1 0 0 0 1,-1 V 10 A 1,1 0 0 0 20,9 Z"
       id="path3" /><path
       style="baseline-shift:baseline;display:inline;overflow:visible;opacity:1;vector-effect:none;fill:#ffffff;stroke:none;stroke-linecap:butt;stroke-linejoin:miter;enable-background:accumulate;stop-color:#000000;stop-opacity:1"
       d="M 21.292969,2.2929688 13,10.585938 10.060547,7.6464844 c -0.5773811,-0.5772067 -1.5437129,-0.5772067 -2.1210939,0 L 1.2929687,14.292969 a 1,1 0 0 0 0,1.414062 1,1 0 0 0 1.4140626,0 L 9,9.4140625 11.939453,12.353516 c 0.577886,0.577196 1.546027,0.576527 2.123047,-0.002 l 8.644531,-8.6445317 a 1,1 0 0 0 0,-1.4140625 1,1 0 0 0 -1.414062,0 z"
       id="path4" /><path
       style="baseline-shift:baseline;display:inline;overflow:visible;opacity:1;vector-effect:none;fill:#ffffff;stroke:none;stroke-linecap:butt;stroke-linejoin:miter;enable-background:accumulate;stop-color:#000000;stop-opacity:1"
       d="m 4,17 a 1,1 0 0 0 -1,1 v 3 a 1,1 0 0 0 1,1 1,1 0 0 0 1,-1 V 18 A 1,1 0 0 0 4,17 Z"
       id="path5" /><path
       style="baseline-shift:baseline;display:inline;overflow:visible;opacity:1;vector-effect:none;fill:#ffffff;stroke:none;stroke-linecap:butt;stroke-linejoin:miter;enable-background:accumulate;stop-color:#000000;stop-opacity:1"
       d="m 8,13 a 1,1 0 0 0 -1,1 v 7 a 1,1 0 0 0 1,1 1,1 0 0 0 1,-1 V 14 A 1,1 0 0 0 8,13 Z"
       id="path6" /></g></svg>
